# xmcd CD database file
#
# Track frame offsets:
#	150
#	62372
#	89164
#	138011
#	165818
#	179110
#	227649
#	257088
#	281367
#	293928
#
# Disc length: 4262 seconds
#
# Revision: 0
# Processed by: cddbd v1.5.2PL0 Copyright (c) Steve Scherf et al.
# Submitted via: CDex 1.70beta2
#
DISCID=8810a40a
DTITLE=AA.VV. - Saxophobia - The best of saxophone music
DYEAR=2006
DGENRE=Jazz
TTITLE0=John Coltrane - My favorite things
TTITLE1=Charlie Parker - No noise parts (I-II)
TTITLE2=Johnny Griffin - Isfahan
TTITLE3=Gerry Mulligan - Line for lyons
TTITLE4=Charlie Parker - Mango Mangue
TTITLE5=John Coltrane - Blue Train
TTITLE6=Johnny Griffin - All through the night
TTITLE7=Gerry Mulligan - Limelight
TTITLE8=Charlie Parker - Okiedoke
TTITLE9=John Coltrane - Trane's blues
EXTD=YEAR: 2006
EXTT0=
EXTT1=
EXTT2=
EXTT3=
EXTT4=
EXTT5=
EXTT6=
EXTT7=
EXTT8=
EXTT9=
PLAYORDER=
